<svg xmlns="http://www.w3.org/2000/svg" version="1.0" width="304.000000pt" height="304.000000pt" viewBox="0 0 304.000000 304.000000" preserveAspectRatio="xMidYMid meet">

<g transform="translate(0.000000,304.000000) scale(0.100000,-0.100000)" fill="#ffffff" stroke="none">
<path d="M1405 2934 c-355 -36 -642 -171 -891 -419 -280 -279 -424 -624 -424 -1013 0 -402 160 -772 452 -1047 378 -355 923 -480 1418 -323 430 136 783 484 925 911 50 152 65 236 72 402 15 400 -120 759 -392 1044 -268 281 -612 434 -995 445 -69 2 -143 2 -165 0z m345 -45 c509 -81 949 -457 1110 -948 51 -158 65 -248 65 -441 0 -243 -33 -392 -129 -595 -201 -424 -577 -710 -1041 -791 -119 -21 -343 -21 -461 0 -393 69 -721 282 -944 615 -61 91 -145 271 -174 376 -240 845 319 1686 1194 1795 85 10 284 5 380 -11z" fill="#ffffff"/>
<path d="M1355 2853 c-457 -59 -861 -352 -1059 -767 -94 -195 -130 -361 -129 -591 0 -232 37 -392 137 -596 187 -379 528 -642 957 -735 130 -29 409 -26 547 4 412 92 749 355 936 730 99 196 140 375 139 602 0 233 -41 407 -144 613 -191 385 -562 658 -993 732 -81 14 -310 19 -391 8z m440 -48 c265 -59 500 -189 682 -379 107 -111 171 -198 235 -324 96 -190 141 -378 141 -597 0 -370 -131 -685 -392 -945 -193 -191 -396 -303 -662 -361 -86 -20 -133 -24 -274 -24 -103 0 -194 5 -230 13 -381 83 -683 281 -878 577 -73 111 -95 154 -140 275 -57 154 -80 280 -80 455 -1 228 38 394 138 600 121 247 341 468 591 594 102 51 262 105 374 125 108 20 391 15 495 -9z" fill="#ffffff"/>
<path d="M1392 2741 c-17 -11 -6 -174 12 -168 6 2 9 20 8 40 -5 49 19 50 48 2 12 -19 28 -35 36 -35 20 0 18 8 -11 46 -20 26 -22 33 -10 38 18 7 20 57 3 74 -14 14 -67 16 -86 3z m74 -33 c8 -12 -21 -38 -43 -38 -7 0 -13 11 -13 25 0 20 5 25 24 25 14 0 28 -5 32 -12z" fill="#ffffff"/>
<path d="M1557 2743 c-4 -3 -7 -37 -7 -74 0 -71 14 -99 49 -99 40 0 55 25 59 99 5 91 -12 93 -24 4 -8 -63 -11 -68 -34 -68 -25 0 -25 1 -22 73 3 66 -3 84 -21 65z" fill="#ffffff"/>
<path d="M1714 2655 c-13 -54 -15 -78 -7 -86 8 -8 13 1 18 33 11 66 18 68 35 9 26 -90 38 -79 68 57 8 33 7 42 -3 42 -7 0 -16 -17 -20 -38 -11 -66 -21 -67 -35 -3 -7 36 -18 61 -26 61 -7 0 -19 -30 -30 -75z" fill="#ffffff"/>
<path d="M1240 2683 c0 -21 -3 -63 -7 -93 -6 -51 -5 -54 10 -41 10 7 17 20 17 27 0 22 51 30 65 10 12 -16 40 -23 33 -8 -1 5 -21 38 -43 75 -46 79 -75 90 -75 30z m54 -54 c-13 -22 -34 -8 -34 24 l1 32 19 -24 c11 -12 17 -27 14 -32z" fill="#ffffff"/>
<path d="M1117 2682 c-46 -15 -61 -40 -20 -34 18 2 25 -8 43 -63 12 -37 27 -65 35 -65 11 0 8 16 -10 71 -24 70 -24 71 -5 76 20 5 26 18 13 26 -5 2 -29 -3 -56 -11z" fill="#ffffff"/>
<path d="M1881 2603 c-45 -62 -53 -94 -16 -63 24 20 65 4 65 -25 0 -16 6 -25 15 -25 12 0 15 17 15 90 0 113 -11 116 -79 23z m49 -3 c0 -20 -5 -30 -15 -30 -18 0 -19 14 -3 40 17 26 18 25 18 -10z" fill="#ffffff"/>
<path d="M903 2585 c-54 -38 -4 -154 65 -155 13 0 34 11 47 25 24 24 25 25 9 59 -15 31 -19 33 -40 24 -30 -14 -33 -42 -3 -33 17 6 20 3 17 -17 -2 -18 -9 -23 -33 -23 -24 0 -34 7 -50 37 -16 31 -17 38 -5 53 7 9 24 15 39 13 18 -2 26 2 26 12 0 21 -45 24 -72 5z" fill="#ffffff"/>
<path d="M2066 2531 c-39 -74 -41 -81 -27 -81 6 0 22 23 37 50 15 28 28 49 30 47 2 -1 -6 -29 -17 -61 -23 -70 -22 -66 -6 -66 6 0 32 21 56 47 l43 48 -31 -57 c-17 -31 -27 -59 -22 -62 10 -7 27 17 65 92 24 47 25 53 10 59 -12 4 -29 -6 -56 -35 -43 -46 -44 -46 -23 22 12 40 13 51 3 58 -22 13 -24 10 -62 -61z" fill="#ffffff"/>
<path d="M790 2498 c1 -7 14 -28 30 -47 16 -19 28 -36 26 -39 -2 -2 -28 9 -56 23 -76 38 -84 21 -25 -54 43 -55 65 -73 65 -54 0 3 -12 21 -26 40 -14 19 -24 37 -21 39 3 3 28 -6 55 -20 31 -16 53 -22 57 -16 4 6 -15 39 -41 75 -47 63 -64 78 -64 53z" fill="#ffffff"/>
<path d="M1353 2485 c-143 -26 -295 -89 -410 -171 -78 -56 -191 -173 -248 -259 -63 -95 -96 -167 -132 -284 -25 -80 -27 -99 -27 -271 0 -173 2 -191 27 -273 51 -166 127 -294 246 -420 127 -133 286 -225 471 -275 132 -35 342 -37 474 -4 378 94 664 386 748 765 29 133 22 354 -16 480 -31 104 -92 229 -151 312 -52 72 -171 189 -241 238 -210 145 -494 207 -741 162z m407 -45 c336 -86 591 -334 696 -675 26 -84 28 -102 28 -265 0 -161 -3 -182 -27 -263 -65 -210 -182 -381 -347 -506 -391 -294 -925 -257 -1270 89 -119 119 -196 249 -246 416 -36 120 -45 320 -20 445 29 141 74 252 146 359 147 217 375 365 637 415 107 20 291 13 403 -15z" fill="#ffffff"/>
<path d="M1479 2314 c-26 -17 -98 -50 -161 -73 -118 -43 -177 -81 -203 -131 -11 -22 -23 -28 -59 -32 -59 -7 -93 -33 -182 -142 -80 -97 -136 -146 -166 -146 -21 0 -24 -16 -4 -23 19 -7 33 -83 45 -239 10 -131 34 -212 65 -224 11 -4 14 -17 9 -53 -7 -65 6 -102 87 -225 37 -59 74 -128 81 -155 l12 -48 56 0 c31 0 111 -14 178 -32 135 -35 209 -39 255 -15 29 15 34 15 65 0 50 -24 125 -20 253 15 68 18 140 31 175 31 l61 1 17 56 c9 31 46 101 82 156 71 109 90 159 81 217 -5 31 -2 41 18 61 34 34 45 79 60 252 14 154 25 199 48 208 7 2 -2 11 -22 20 -47 21 -75 47 -158 149 -84 102 -117 127 -177 136 -35 6 -48 14 -67 42 -33 49 -87 82 -207 125 -57 21 -125 52 -150 69 l-46 31 -46 -31z m194 -74 c181 -68 238 -105 253 -166 6 -22 10 -24 39 -18 56 10 97 -19 196 -137 50 -60 104 -117 120 -126 23 -14 29 -23 24 -38 -3 -11 -11 -72 -16 -135 -19 -213 -28 -251 -64 -287 -31 -31 -33 -36 -23 -70 14 -53 -6 -111 -74 -215 -61 -92 -97 -162 -98 -188 0 -12 -8 -15 -34 -12 -19 2 -98 -12 -178 -32 -170 -43 -212 -45 -259 -13 l-34 23 -34 -23 c-46 -32 -90 -30 -255 12 -77 19 -156 35 -177 35 -36 0 -39 2 -51 42 -7 23 -42 87 -79 144 -77 120 -96 173 -80 230 8 28 8 40 0 43 -47 16 -66 73 -80 241 -5 69 -14 146 -20 173 -10 44 -9 48 12 67 13 11 27 19 31 20 3 0 46 49 96 108 98 118 140 148 197 138 29 -6 33 -4 39 18 15 62 69 99 231 157 45 17 102 42 126 58 l44 27 33 -22 c18 -13 70 -37 115 -54z" fill="#ffffff"/>
<path d="M1370 2144 c-237 -51 -445 -261 -500 -504 -15 -68 -12 -228 5 -295 24 -93 87 -213 150 -282 311 -344 869 -271 1074 141 54 106 71 179 71 296 0 193 -68 349 -210 483 -154 146 -376 207 -590 161z m312 -30 c102 -26 195 -80 279 -164 350 -348 189 -941 -290 -1065 -80 -21 -231 -21 -311 0 -297 77 -494 345 -478 649 13 234 147 437 356 538 139 67 292 82 444 42z" fill="#ffffff"/>
<path d="M1381 2054 c-89 -24 -191 -84 -262 -154 -79 -78 -135 -158 -122 -171 16 -16 2 -60 -22 -69 -47 -18 -48 -82 -2 -110 69 -42 137 -18 176 63 27 55 27 81 -1 99 -21 14 -20 15 45 85 141 149 325 189 505 108 52 -24 146 -104 185 -159 18 -26 19 -29 4 -38 -36 -20 -6 -112 52 -161 26 -21 35 -24 71 -17 84 15 108 78 50 131 -26 24 -30 34 -25 57 5 23 -2 40 -38 88 -90 121 -222 215 -353 249 -72 19 -191 18 -263 -1z m279 -20 c71 -20 163 -71 225 -126 47 -42 135 -151 135 -169 0 -8 -80 -54 -84 -47 -31 51 -64 97 -92 128 l-35 38 25 20 c14 11 23 22 20 25 -3 3 -16 -6 -28 -20 l-22 -25 -44 29 c-80 53 -134 68 -251 68 -101 0 -108 -1 -181 -38 -42 -20 -98 -57 -124 -81 -38 -34 -53 -41 -69 -35 -11 4 -26 8 -34 8 -21 1 -4 -12 21 -16 29 -5 34 -11 20 -25 -9 -9 -12 -9 -12 0 0 7 -5 12 -11 12 -8 0 -8 -4 0 -14 9 -11 8 -21 -6 -44 -20 -32 -22 -32 -81 5 l-22 14 32 47 c43 63 121 137 191 183 128 83 276 105 427 63z m-549 -374 c6 0 8 7 5 17 -4 10 -4 14 0 10 4 -4 13 -2 20 4 26 22 25 -14 -3 -69 -43 -85 -78 -97 -76 -26 1 31 -3 37 -27 46 -26 9 -28 12 -18 33 l11 24 38 -19 c21 -11 43 -20 50 -20z m860 18 c23 12 43 21 44 20 2 -2 5 -13 9 -24 5 -17 1 -24 -23 -34 -25 -10 -29 -16 -25 -39 2 -14 0 -33 -5 -41 -8 -12 -14 -11 -35 9 -29 27 -62 104 -51 120 4 8 13 3 25 -11 l19 -23 42 23z m-964 -49 c27 -9 31 -15 31 -50 1 -21 -1 -39 -2 -39 -2 0 -17 5 -35 11 -36 13 -55 41 -46 69 7 23 11 24 52 9z m1068 0 c14 -22 -6 -60 -40 -76 -19 -9 -36 -15 -38 -12 -2 2 -2 21 1 42 3 27 11 41 26 47 29 12 44 12 51 -1z" fill="#ffffff"/>
<path d="M1440 2008 c0 -25 3 -29 10 -18 8 12 12 12 18 2 6 -9 9 -3 10 17 0 24 -4 31 -19 31 -15 0 -19 -7 -19 -32z m30 12 c0 -5 -4 -10 -10 -10 -5 0 -10 5 -10 10 0 6 5 10 10 10 6 0 10 -4 10 -10z" fill="#ffffff"/>
<path d="M1500 2023 c0 -7 4 -13 9 -13 5 0 11 6 14 13 3 8 -1 14 -9 14 -8 0 -14 -6 -14 -14z" fill="#ffffff"/>
<path d="M1545 2019 c-4 -11 -4 -23 -1 -26 3 -4 6 2 7 13 0 16 2 15 10 -5 12 -31 19 -24 12 12 -6 32 -19 35 -28 6z" fill="#ffffff"/>
<path d="M1390 1999 c0 -25 3 -29 13 -20 8 6 17 7 21 3 4 -4 2 5 -5 21 -16 36 -29 34 -29 -4z" fill="#ffffff"/>
<path d="M1624 2014 c3 -9 6 -22 6 -30 0 -9 5 -12 10 -9 6 3 10 0 10 -7 0 -9 3 -9 10 2 13 19 13 53 0 45 -5 -3 -6 -13 -3 -22 4 -11 3 -14 -5 -9 -7 4 -12 16 -12 27 0 10 -5 19 -11 19 -6 0 -8 -7 -5 -16z" fill="#ffffff"/>
<path d="M1332 1974 c11 -23 13 -24 19 -7 4 10 8 12 8 6 1 -7 6 -13 13 -13 6 0 3 9 -7 20 -27 30 -48 27 -33 -6z" fill="#ffffff"/>
<path d="M1704 1984 c3 -8 2 -13 -3 -10 -5 3 -14 -1 -21 -9 -11 -13 -10 -14 4 -9 10 4 16 1 17 -7 0 -8 4 -5 9 6 12 28 12 45 -1 45 -6 0 -8 -7 -5 -16z" fill="#ffffff"/>
<path d="M1273 1956 c0 -18 5 -23 24 -23 l24 0 -22 23 c-12 13 -23 24 -24 24 -2 0 -2 -11 -2 -24z" fill="#ffffff"/>
<path d="M1735 1953 c-15 -22 -15 -25 -2 -20 10 4 17 -1 20 -14 3 -10 12 -19 21 -19 9 0 16 -6 16 -12 1 -7 8 0 16 15 19 35 11 46 -16 22 -21 -19 -42 -13 -22 7 17 17 15 28 -3 22 -11 -5 -13 -2 -9 10 9 25 -2 19 -21 -11z" fill="#ffffff"/>
<path d="M1230 1920 c27 -21 33 -20 25 1 -3 8 -16 16 -28 16 -22 2 -22 2 3 -17z" fill="#ffffff"/>
<path d="M1187 1914 c-3 -3 4 -15 15 -26 26 -26 32 -20 8 9 -9 12 -20 20 -23 17z" fill="#ffffff"/>
<path d="M1175 1870 c10 -11 20 -20 23 -20 3 0 -3 9 -13 20 -10 11 -20 20 -23 20 -3 0 3 -9 13 -20z" fill="#ffffff"/>
<path d="M1856 1855 c-15 -23 -15 -25 0 -25 10 0 14 3 11 6 -3 4 -2 15 4 25 14 28 4 23 -15 -6z" fill="#ffffff"/>
<path d="M1125 1849 c-6 -9 21 -38 37 -39 14 0 19 21 8 35 -15 18 -36 19 -45 4z m40 -10 c12 -19 -5 -23 -22 -6 -16 16 -16 17 -1 17 9 0 20 -5 23 -11z" fill="#ffffff"/>
<path d="M1905 1821 c3 -5 1 -12 -5 -16 -5 -3 -10 -1 -10 4 0 6 -5 11 -11 11 -8 0 -9 -4 0 -13 6 -8 8 -17 4 -20 -3 -4 -3 -7 2 -7 9 0 34 31 35 43 0 4 -5 7 -11 7 -5 0 -8 -4 -4 -9z" fill="#ffffff"/>
<path d="M1409 1844 c-23 -23 -29 -24 -49 -14 -22 12 -22 11 -19 -38 l4 -49 -35 18 c-19 10 -51 22 -70 25 l-35 7 32 -33 c40 -39 48 -77 39 -183 -3 -45 -2 -97 3 -114 5 -18 8 -33 7 -33 -2 0 -29 11 -60 25 l-57 25 -24 -26 c-34 -37 -33 -72 3 -85 15 -6 36 -19 47 -29 17 -16 27 -17 74 -8 30 5 66 6 80 3 26 -7 25 -8 -12 -21 -64 -23 -99 -52 -95 -83 3 -25 5 -26 80 -29 l77 -3 17 36 c22 47 27 49 59 23 25 -19 31 -20 59 -9 60 24 62 24 83 -12 19 -31 25 -34 83 -40 67 -7 90 1 90 33 0 21 -12 31 -81 71 l-54 30 60 -5 c33 -3 71 -8 85 -11 19 -5 27 -1 35 16 6 14 24 26 43 31 35 9 42 34 19 77 -20 40 -48 43 -112 10 -68 -34 -68 -34 -57 -11 5 9 12 67 15 128 6 100 20 164 36 164 3 0 17 9 31 20 l25 20 -45 -6 c-25 -4 -58 -13 -74 -21 l-29 -15 5 46 c5 44 5 46 -18 40 -17 -5 -29 1 -48 22 l-24 29 -22 -28 -22 -28 -22 20 c-20 19 -23 19 -38 4 -15 -15 -18 -14 -40 11 l-23 27 -26 -27z m53 -19 c17 -22 17 -25 2 -40 -15 -15 -18 -14 -40 6 -22 21 -23 24 -7 41 21 23 24 22 45 -7z m161 -37 c-20 -22 -37 -23 -53 -3 -11 13 -9 20 11 41 l23 25 18 -23 c15 -21 15 -24 1 -40z m-85 11 c11 -17 11 -27 2 -49 -9 -23 -9 -43 4 -99 9 -38 16 -94 16 -123 -1 -56 -28 -148 -45 -151 -5 -1 -20 23 -33 53 -27 65 -24 134 8 229 19 53 20 65 9 95 -10 28 -10 38 0 50 18 21 24 20 39 -5z m-113 -41 c30 -35 30 -28 0 -187 -17 -94 -13 -139 17 -176 28 -35 3 -31 -34 5 -28 29 -30 35 -24 78 4 26 9 82 13 124 5 67 3 81 -16 111 -11 19 -21 49 -21 66 0 28 2 31 19 22 10 -6 31 -25 46 -43z m249 5 c-3 -16 -17 -45 -30 -65 -34 -52 -37 -75 -20 -151 16 -76 9 -123 -23 -151 -19 -17 -19 -16 -3 27 15 41 15 53 2 124 -8 43 -15 102 -15 131 0 48 3 57 33 83 42 38 65 39 56 2z m-352 -32 l33 -30 -3 -139 c-2 -130 -1 -140 19 -167 20 -25 20 -26 3 -17 -35 19 -73 60 -80 87 -4 15 -4 65 -1 111 4 79 0 124 -18 167 -11 26 10 21 47 -12z m438 3 c0 -3 -5 -15 -12 -27 -6 -12 -15 -74 -19 -138 -7 -132 -19 -158 -81 -190 -22 -11 -42 -18 -45 -16 -2 3 5 8 16 12 35 11 43 41 42 155 -2 119 6 149 45 185 25 23 54 33 54 19z m-375 -149 c-4 -25 -10 -44 -12 -41 -3 3 -2 26 2 51 3 26 9 45 12 42 2 -3 1 -26 -2 -52z m252 8 c-3 -10 -5 -2 -5 17 0 19 2 27 5 18 2 -10 2 -26 0 -35z m-185 -51 c-2 -42 2 -84 12 -112 19 -55 14 -62 -14 -19 -19 29 -21 44 -16 107 5 63 11 92 19 92 1 0 1 -30 -1 -68z m138 -51 c0 -45 -5 -64 -21 -82 -18 -21 -20 -22 -14 -4 4 11 12 48 17 83 6 34 13 62 14 62 2 0 4 -27 4 -59z m-286 -94 l79 -42 -84 -6 c-64 -4 -86 -2 -94 8 -6 7 -24 17 -40 22 -33 9 -36 32 -8 63 18 20 32 16 147 -45z m569 46 c28 -32 25 -55 -8 -64 -16 -5 -36 -18 -45 -29 -14 -19 -20 -19 -70 -10 -30 6 -73 8 -95 4 l-40 -6 55 30 c30 17 80 44 110 61 64 36 72 37 93 14z m-293 -84 c8 -1 -3 -5 -25 -10 -42 -9 -125 -1 -107 10 9 5 82 6 132 0z m51 -45 c70 -21 139 -64 139 -87 0 -17 -6 -18 -62 -12 -35 4 -66 13 -70 20 -4 6 -16 23 -27 36 -20 24 -20 24 -51 7 -40 -23 -56 -23 -87 1 -31 25 -45 19 -66 -24 -15 -32 -20 -35 -61 -35 -24 0 -51 -3 -60 -6 -25 -10 -32 25 -9 48 59 59 240 85 354 52z" fill="#ffffff"/>
<path d="M948 1399 c-19 -11 -24 -54 -8 -64 6 -3 15 6 20 20 16 43 33 24 58 -66 20 -77 27 -88 77 -136 30 -29 55 -61 55 -72 0 -24 61 -86 109 -111 141 -72 348 -73 497 -4 59 28 124 87 124 113 0 10 19 36 43 57 53 47 74 79 87 127 6 20 15 55 20 77 11 42 40 56 40 19 0 -14 5 -19 18 -17 35 7 6 68 -34 68 -31 0 -50 -21 -85 -96 -36 -75 -57 -94 -149 -129 -80 -30 -116 -66 -99 -96 27 -52 -203 -90 -327 -54 -72 21 -82 29 -77 58 6 32 -39 69 -116 97 -73 27 -107 59 -138 129 -39 88 -68 108 -115 80z m1052 -108 c-15 -61 -26 -82 -61 -117 -54 -55 -69 -60 -115 -36 l-38 19 53 18 c70 23 110 60 145 134 16 33 31 60 32 58 2 -2 -5 -36 -16 -76z m-903 -63 c8 -9 45 -29 81 -44 83 -34 89 -39 51 -40 -16 -1 -37 -8 -47 -17 -16 -14 -21 -12 -69 29 -52 45 -73 86 -88 174 -5 31 -2 28 26 -25 17 -33 38 -68 46 -77z m180 -118 c17 -13 20 -20 11 -20 -8 0 -23 9 -33 20 -10 11 -15 20 -11 20 4 0 19 -9 33 -20z m503 0 c-33 -26 -52 -25 -21 0 13 11 28 20 35 20 6 0 0 -9 -14 -20z m-525 -24 c76 -59 145 -79 265 -80 119 0 174 16 257 77 37 27 52 33 66 26 61 -34 -54 -131 -195 -164 -163 -38 -340 -4 -443 86 -36 32 -44 56 -23 77 17 17 23 16 73 -22z" fill="#ffffff"/>
<path d="M1223 1059 c-9 -9 -8 -15 4 -27 13 -13 16 -13 24 -1 17 27 -6 50 -28 28z" fill="#ffffff"/>
<path d="M1780 1051 c0 -11 5 -23 10 -26 6 -3 10 -1 10 4 0 6 8 11 17 11 15 0 14 2 -3 15 -26 20 -34 19 -34 -4z" fill="#ffffff"/>
<path d="M1750 1042 c0 -7 -4 -10 -10 -7 -12 8 -13 -5 -1 -24 6 -9 14 -10 25 -4 14 8 15 11 1 28 -9 12 -14 15 -15 7z" fill="#ffffff"/>
<path d="M1272 1028 c-15 -15 -16 -32 -2 -23 6 3 10 1 10 -5 0 -6 5 -8 10 -5 12 7 14 45 2 45 -4 0 -13 -5 -20 -12z" fill="#ffffff"/>
<path d="M1309 998 c-10 -18 -9 -20 5 -15 9 4 16 1 16 -6 0 -7 5 -4 11 6 10 18 5 37 -11 37 -5 0 -14 -10 -21 -22z" fill="#ffffff"/>
<path d="M1680 1010 c0 -8 4 -21 9 -29 8 -12 12 -12 25 -2 8 7 12 19 9 27 -8 20 -24 17 -16 -3 5 -15 3 -14 -10 2 -12 15 -16 16 -17 5z" fill="#ffffff"/>
<path d="M1367 982 c-17 -19 -17 -20 5 -25 27 -7 26 -8 19 21 -6 24 -6 24 -24 4z" fill="#ffffff"/>
<path d="M1630 988 c0 -19 20 -47 20 -29 0 7 6 11 14 8 10 -4 12 0 9 14 -6 21 -43 27 -43 7z" fill="#ffffff"/>
<path d="M1417 984 c-11 -11 -8 -36 3 -29 6 3 10 1 10 -4 0 -6 5 -11 10 -11 6 0 10 12 10 28 0 19 -3 23 -9 13 -6 -9 -10 -10 -12 -2 -3 7 -8 9 -12 5z" fill="#ffffff"/>
<path d="M1548 981 c-14 -5 -14 -9 -3 -24 12 -16 13 -16 18 5 7 26 7 27 -15 19z" fill="#ffffff"/>
<path d="M1587 964 c-3 -19 -1 -24 10 -20 8 3 19 6 24 6 5 0 4 9 -3 20 -17 27 -25 25 -31 -6z" fill="#ffffff"/>
<path d="M1465 971 c-9 -16 3 -31 26 -31 14 0 19 6 17 17 -4 20 -33 29 -43 14z" fill="#ffffff"/>
<path d="M2241 2443 c-51 -59 -60 -87 -36 -113 29 -32 58 -24 109 30 44 47 56 70 38 70 -5 0 -30 -23 -55 -51 -39 -43 -49 -50 -62 -39 -22 18 -19 35 13 72 49 58 53 66 43 72 -5 3 -28 -15 -50 -41z" fill="#ffffff"/>
<path d="M624 2366 c-3 -8 11 -45 32 -83 46 -83 41 -76 53 -68 7 4 8 12 2 24 -16 30 13 62 49 54 68 -13 17 25 -98 74 -28 12 -33 11 -38 -1z m61 -38 c14 -6 24 -16 22 -22 -7 -20 -25 -16 -41 9 -19 28 -17 30 19 13z" fill="#ffffff"/>
<path d="M2360 2324 c-30 -25 -59 -50 -64 -54 -5 -5 1 -22 13 -39 30 -41 68 -41 116 0 42 37 45 71 12 111 l-22 28 -55 -46z m70 -15 c14 -25 -4 -57 -44 -78 -23 -13 -28 -12 -47 5 l-21 19 44 37 c50 44 54 45 68 17z" fill="#ffffff"/>
<path d="M524 2238 c-48 -55 -49 -51 26 -103 69 -47 113 -55 56 -10 -39 31 -26 49 29 41 33 -5 44 -3 48 9 5 12 -2 15 -38 15 -34 0 -43 3 -39 14 6 16 -29 56 -49 56 -8 0 -22 -10 -33 -22z m54 -28 c1 -9 -3 -23 -10 -32 -11 -15 -16 -15 -31 -3 -16 11 -17 16 -5 34 14 24 41 24 46 1z" fill="#ffffff"/>
<path d="M2448 2197 c-32 -23 -57 -48 -58 -54 0 -7 2 -13 5 -13 10 0 135 94 135 102 0 17 -27 6 -82 -35z" fill="#ffffff"/>
<path d="M2492 2137 c-42 -24 -68 -45 -63 -50 5 -5 17 -4 29 2 26 14 52 14 52 0 0 -6 -9 -24 -21 -40 -13 -18 -18 -37 -14 -47 5 -13 13 -6 38 35 31 52 32 52 71 46 30 -5 38 -3 34 8 -3 8 -23 17 -46 20 -54 7 -59 14 -22 29 29 12 38 24 23 33 -5 3 -41 -14 -81 -36z" fill="#ffffff"/>
<path d="M420 2077 c0 -17 118 -133 126 -124 4 4 0 15 -9 24 -13 16 -14 22 -2 43 8 15 22 25 36 25 12 0 24 5 26 11 2 7 -24 16 -66 22 -89 15 -111 15 -111 -1z m100 -24 c0 -5 -5 -15 -10 -23 -8 -13 -13 -12 -32 8 l-22 22 32 0 c18 0 32 -3 32 -7z" fill="#ffffff"/>
<path d="M364 1967 c-3 -9 3 -28 13 -44 36 -52 36 -53 3 -41 -21 7 -35 7 -42 0 -6 -6 16 -18 68 -36 46 -15 82 -22 87 -17 5 5 -1 12 -14 16 -13 5 -29 15 -36 24 -13 19 3 29 48 30 15 1 30 8 33 16 5 14 -2 15 -54 9 -59 -6 -59 -6 -79 27 -16 26 -21 30 -27 16z" fill="#ffffff"/>
<path d="M2548 1971 c-41 -4 -55 -9 -50 -18 4 -6 16 -11 27 -10 28 3 45 -48 22 -65 -9 -8 -13 -18 -9 -25 10 -16 142 95 135 113 -5 14 -24 15 -125 5z m63 -42 c-19 -15 -26 -17 -32 -7 -15 22 -10 28 24 28 l32 -1 -24 -20z" fill="#ffffff"/>
<path d="M385 1648 c-6 -24 -13 -28 -42 -28 l-34 0 28 -24 c25 -21 26 -26 15 -50 l-12 -27 30 17 c23 14 32 16 42 6 19 -19 29 -14 22 12 -4 18 1 28 22 45 l27 21 -35 0 c-28 0 -36 5 -45 28 l-10 27 -8 -27z" fill="#ffffff"/>
<path d="M2647 1640 c-4 -15 -14 -20 -39 -20 l-33 -1 26 -22 c20 -17 25 -27 19 -42 -14 -33 -11 -36 15 -19 23 15 27 15 50 0 26 -17 29 -14 15 19 -6 15 -1 25 19 42 l26 22 -32 1 c-23 0 -33 6 -38 20 -3 11 -10 20 -15 20 -4 0 -10 -9 -13 -20z" fill="#ffffff"/>
<path d="M2580 1264 c0 -11 11 -35 25 -54 14 -19 25 -35 25 -36 0 -2 -15 2 -32 7 -41 11 -38 11 -38 -4 0 -11 113 -47 148 -47 22 0 13 18 -13 24 -13 3 -29 15 -35 26 -9 17 -8 20 12 20 39 0 68 12 68 26 0 8 -1 14 -2 14 -2 0 -27 -7 -55 -14 -29 -8 -53 -11 -53 -8 -1 4 -12 21 -25 37 -22 27 -25 28 -25 9z" fill="#ffffff"/>
<path d="M387 1224 c-85 -43 -84 -60 4 -56 l64 3 -58 -33 c-57 -33 -69 -54 -29 -52 12 0 52 1 88 2 48 2 64 5 61 15 -2 8 -23 11 -63 9 l-59 -2 53 27 c29 15 51 32 49 38 -2 5 -30 12 -62 15 l-59 5 52 24 c28 13 49 28 46 33 -8 12 -12 10 -87 -28z" fill="#ffffff"/>
<path d="M2523 1088 c-19 -24 -21 -44 -8 -75 18 -43 83 -65 124 -42 33 19 42 76 15 96 -26 19 -52 16 -59 -8 -9 -26 0 -35 19 -20 34 29 48 -15 15 -45 -20 -18 -21 -18 -57 1 -44 24 -54 58 -23 77 12 7 21 16 21 20 0 13 -37 9 -47 -4z" fill="#ffffff"/>
<path d="M451 1026 c-38 -6 -66 -17 -69 -25 -3 -10 2 -13 21 -9 32 6 54 -31 35 -62 -28 -44 7 -30 64 27 82 82 76 92 -51 69z m44 -36 c-12 -13 -22 -17 -28 -11 -13 13 1 31 25 31 21 0 21 -1 3 -20z" fill="#ffffff"/>
<path d="M587 944 c-4 -4 -4 -17 -1 -29 4 -18 -4 -27 -50 -55 -36 -22 -52 -38 -46 -44 6 -6 29 4 63 27 50 33 56 34 70 19 29 -28 30 -4 3 43 -29 48 -29 49 -39 39z" fill="#ffffff"/>
<path d="M2386 842 c-3 -6 10 -24 30 -42 20 -17 34 -33 32 -35 -2 -2 -28 2 -58 10 -30 8 -58 11 -63 6 -4 -4 21 -33 57 -65 40 -34 67 -52 71 -46 4 6 5 12 4 14 -2 1 -22 17 -44 36 l-40 33 35 -7 c129 -27 130 -23 9 82 -15 13 -30 19 -33 14z" fill="#ffffff"/>
<path d="M2540 830 c0 -6 8 -14 18 -17 9 -4 20 -11 24 -17 5 -7 8 -6 8 3 0 13 -28 40 -42 41 -5 0 -8 -5 -8 -10z" fill="#ffffff"/>
<path d="M628 776 c-33 -29 -48 -51 -48 -68 0 -27 27 -58 51 -58 21 0 125 95 113 103 -6 3 -30 -12 -55 -33 -49 -44 -61 -47 -80 -24 -12 15 -7 22 39 63 29 26 50 50 46 54 -12 11 -16 9 -66 -37z" fill="#ffffff"/>
<path d="M2246 699 l-36 -31 51 -59 c28 -32 56 -59 63 -59 17 0 71 58 63 67 -4 3 -21 -4 -39 -17 -30 -22 -32 -22 -45 -4 -12 17 -11 22 13 42 17 15 23 27 17 33 -6 6 -16 2 -28 -11 -10 -11 -24 -20 -31 -20 -26 0 -26 22 1 50 38 40 14 47 -29 9z" fill="#ffffff"/>
<path d="M759 666 c-9 -18 -7 -30 6 -56 11 -22 13 -36 7 -42 -17 -17 -42 -1 -42 28 0 34 -24 27 -28 -9 -4 -31 36 -62 68 -52 35 11 44 42 24 86 -9 22 -15 42 -12 44 11 11 37 -8 40 -28 3 -25 21 -26 26 -2 5 23 -27 55 -55 55 -15 0 -27 -8 -34 -24z" fill="#ffffff"/>
<path d="M2166 631 c-4 -6 0 -23 7 -38 8 -15 18 -39 22 -53 6 -22 1 -19 -39 19 -37 37 -46 42 -52 28 -5 -15 -2 -28 21 -92 5 -13 -6 -7 -33 19 -23 22 -44 37 -48 33 -11 -10 98 -126 113 -120 14 6 12 20 -13 82 -20 49 -18 49 31 1 62 -61 75 -46 39 46 -30 77 -39 91 -48 75z" fill="#ffffff"/>
<path d="M863 540 c-29 -47 -39 -72 -31 -76 7 -4 13 -3 15 2 2 5 21 36 43 68 35 54 42 77 22 76 -4 0 -26 -32 -49 -70z" fill="#ffffff"/>
<path d="M977 539 c-23 -14 -47 -62 -47 -97 0 -36 28 -62 67 -62 23 0 33 6 42 27 11 24 10 29 -11 44 -16 13 -25 14 -30 6 -4 -6 0 -15 8 -20 20 -11 8 -27 -21 -27 -35 0 -44 43 -18 78 25 34 62 41 70 13 3 -11 11 -22 19 -25 24 -9 17 41 -8 58 -26 18 -46 20 -71 5z" fill="#ffffff"/>
<path d="M1946 502 c-2 -4 -1 -39 4 -77 5 -39 9 -76 10 -83 0 -21 20 -3 20 18 0 29 37 45 66 29 44 -23 38 1 -17 60 -52 57 -72 70 -83 53z m54 -82 c-25 -16 -30 -12 -30 22 l0 32 23 -22 c19 -19 20 -24 7 -32z" fill="#ffffff"/>
<path d="M1127 416 c-26 -35 -47 -69 -47 -75 0 -17 18 -13 28 5 14 26 68 5 64 -24 -2 -15 2 -22 13 -22 13 0 15 13 13 87 -2 49 -8 88 -13 90 -6 2 -32 -26 -58 -61z m53 -10 c0 -29 -10 -38 -29 -27 -10 7 -10 12 0 30 18 28 29 27 29 -3z" fill="#ffffff"/>
<path d="M1770 440 c-24 -24 -25 -48 -6 -95 23 -54 66 -69 106 -37 19 16 22 24 16 55 -6 32 -9 35 -28 28 -30 -11 -33 -27 -7 -34 19 -5 20 -8 9 -21 -29 -36 -80 -1 -80 55 0 37 22 54 50 39 25 -14 33 -9 24 14 -9 23 -60 20 -84 -4z" fill="#ffffff"/>
<path d="M1290 437 c0 -9 -22 -124 -26 -139 -4 -12 0 -18 10 -18 10 0 16 9 16 23 0 38 14 51 34 32 9 -9 16 -25 16 -34 0 -19 27 -48 36 -39 3 3 -2 22 -10 42 -14 34 -14 37 5 46 30 16 26 68 -7 80 -24 9 -74 14 -74 7z m76 -39 c10 -16 -15 -35 -40 -31 -18 4 -22 10 -19 27 4 18 10 22 29 18 13 -2 27 -9 30 -14z" fill="#ffffff"/>
<path d="M1673 375 c3 -30 4 -55 2 -55 -1 0 -17 23 -35 50 -40 63 -64 67 -56 10 3 -22 9 -58 12 -80 3 -22 10 -40 16 -40 7 0 8 18 4 51 -8 59 2 58 35 -1 14 -25 30 -40 42 -40 12 0 17 5 14 13 -3 8 -8 44 -12 80 -4 37 -12 67 -18 67 -6 0 -8 -20 -4 -55z" fill="#ffffff"/>
<path d="M1451 269 c2 -13 -1 -31 -6 -39 -8 -13 -7 -13 8 -1 19 15 23 46 6 57 -7 4 -10 -2 -8 -17z" fill="#ffffff"/>
</g>
</svg>